<svg xmlns="http://www.w3.org/2000/svg" viewBox="0 0 8.32 5.72">
<defs>
<style>
    @keyframes leftCloud {
        0% {
            transform: rotateZ(0)
        }
        25% {
            transform: rotateZ(-10deg)
        }
        50% {
            transform: rotateZ(0deg)
        }
        75% {
            transform: rotateZ(-10deg)
        }
        100% {
            transform: rotateZ(0deg)
        }
    }
    .cls-1{
        fill:#393e46;
    }
    .left {
        animation: leftCloud 1s infinite;
        transform-origin: center bottom;
    }
    .right {
        animation: leftCloud 1s infinite;
        transform-origin: center top;
    }
</style>
</defs>
<title>자산 1</title>
<g id="레이어_2" data-name="레이어 2">
<g id="레이어_1-2" data-name="레이어 1">
<path class="cls-1 left" d="M.65,4.78s-.06,0-.09-.07a.2.2,0,0,1,0-.25,2,2,0,0,0,.49-.73A2,2,0,0,1,0,2.05,2.37,2.37,0,0,1,2.59,0,2.37,2.37,0,0,1,5.18,2.05,2.37,2.37,0,0,1,2.59,4.1,3.29,3.29,0,0,1,1.83,4a6.2,6.2,0,0,1-.69.51c-.29.19-.42.26-.49.26M2.59.31C1.3.31.25,1.09.25,2.05A1.68,1.68,0,0,0,1.31,3.5l.12.06-.05.15a2.2,2.2,0,0,1-.18.41,4.26,4.26,0,0,0,.54-.41l0,0h.05a3.3,3.3,0,0,0,.76.1c1.29,0,2.34-.78,2.34-1.74S3.88.31,2.59.31"/>
<path class="cls-1 right" d="M8.32,3.26A2.14,2.14,0,0,0,6,1.45a3.08,3.08,0,0,0-.61.06,1.41,1.41,0,0,1,.16.67A2,2,0,0,1,3.9,4.12,2.18,2.18,0,0,0,6,5.08,3.08,3.08,0,0,0,6.71,5a3.83,3.83,0,0,0,1.08.72,2.23,2.23,0,0,1-.56-.91A1.75,1.75,0,0,0,8.32,3.26"/>
</g>
</g>
</svg>