<svg xmlns="http://www.w3.org/2000/svg" viewBox="0 0 90.77 66.28">
<defs>
<style>
.chat--icon {
    transform: scale(.89) translateY(2px);
}
.chat--cloud, .chat--white-line{stroke:#000;stroke-linecap:round;stroke-linejoin:round;}
.chat--cloud{stroke-width:3px; fill:#fff; stroke:#000;}
.chat--white-line{fill:none;stroke-width:2.5px;}
.chat--board{fill:#fff; stroke:#000; stroke-width:3px;}
</style>
</defs>
<title>Asset 4</title>
<g id="Layer_2" data-name="Layer 2">
<g id="Layer_1-2" data-name="Layer 1" class="chat--icon">
<path class="chat--cloud" d="M53.2,11.61l-38.35-.06A13.33,13.33,0,0,0,1.53,24.83l0,15.53A13.36,13.36,0,0,0,14.79,53.69h5.79L20.5,64.78,32.91,53.71l20.23,0A13.35,13.35,0,0,0,66.46,40.46l0-15.52A13.35,13.35,0,0,0,53.2,11.61Z"/>
<line class="chat--white-line" x1="12.39" y1="23.19" x2="27.91" y2="23.21"/>
<line class="chat--white-line" x1="12.37" y1="30.95" x2="39.64" y2="30.99"/>
<line class="chat--white-line" x1="12.36" y1="39.82" x2="45.64" y2="39.87"/>
<rect class="chat--board" x="40.19" y="0.02" width="50.57" height="36.07" rx="15.13" transform="translate(0.03 -0.11) rotate(0.09)"/>
</g></g></svg>