<svg xmlns="http://www.w3.org/2000/svg" viewBox="0 0 3.88 3.83">
<defs>
<style>
    @keyframes health {
        0% {
            transform: rotateZ(0)
        }
        30% {
            transform: rotateZ(-360deg)
        }
        100% {
            transform: rotateZ(-360deg)
        }
    }
    .health-icon {
        position: relative;
        animation: health 4.5s infinite;
        animation-fill-mode: forwards;
    }
    .health1 {
        animation-delay: 0s;
    }
    .health2 {
        animation-delay: 1s;
    }
    .health3 {
        animation-delay: 1.5s;
    }
    .health4 {
        animation-delay: 2s;
    }
    .health5 {
        animation-delay: 2.5s;
    }
</style></defs><title>자산 4</title>
<g id="레이어_2" data-name="레이어 2">
<g id="레이어_1-2" data-name="레이어 1">
<path class="health1 health-icon" d="M.13.52h0a.11.11,0,0,1,0-.17l.2-.2A.14.14,0,0,1,.5.15.12.12,0,0,1,.5.32L.3.52a.12.12,0,0,1-.17,0"/>
<path class="health2 health-icon" d="M.06,1.08h0a.14.14,0,0,1,0-.17L.89.09a.12.12,0,0,1,.17,0,.12.12,0,0,1,0,.16l-.83.83a.12.12,0,0,1-.17,0"/>
<path class="health3 health-icon" d="M0,1.6H0a.14.14,0,0,1,0-.17L1.41.06a.12.12,0,0,1,.17,0,.1.1,0,0,1,0,.16L.2,1.6A.11.11,0,0,1,0,1.6"/>
<path class="health4 health-icon" d="M.06,2.07h0a.1.1,0,0,1,0-.16L1.93,0a.12.12,0,0,1,.16,0,.11.11,0,0,1,0,.17L.22,2.07a.1.1,0,0,1-.16,0"/>
<path class="health1 health-icon" d="M3.75,3.31h0a.14.14,0,0,1,0,.17l-.21.2a.1.1,0,0,1-.16,0,.12.12,0,0,1,0-.17l.2-.2a.14.14,0,0,1,.17,0"/>
<path class="health2 health-icon" d="M3.81,2.75h0a.12.12,0,0,1,0,.17L3,3.75a.12.12,0,0,1-.16,0,.12.12,0,0,1,0-.17l.83-.83a.12.12,0,0,1,.16,0"/>
<path class="health3 health-icon" d="M3.84,2.23h0a.12.12,0,0,1,0,.17L2.46,3.78a.12.12,0,0,1-.16,0,.12.12,0,0,1,0-.17L3.67,2.23a.14.14,0,0,1,.17,0"/>
<path class="health4 health-icon" d="M3.82,1.76h0a.12.12,0,0,1,0,.17L2,3.8a.12.12,0,0,1-.17,0,.14.14,0,0,1,0-.17L3.65,1.76a.14.14,0,0,1,.17,0"/>
<path class="health5 health-icon" d="M1.21,1.24h0a.11.11,0,0,1,.17,0L2.62,2.47a.14.14,0,0,1,0,.17.12.12,0,0,1-.17,0L1.21,1.4a.12.12,0,0,1,0-.16"/>
</g>
</g>
</svg>