<svg xmlns="http://www.w3.org/2000/svg" viewBox="0 0 59.15 54.19"><title>Asset 2</title><g id="Layer_2" data-name="Layer 2"><g id="Layer_1-2" data-name="Layer 1"><path d="M59.07,27.85a8.43,8.43,0,0,0-8.23-8.14,15.56,15.56,0,0,0-13,6.28c-.57.71-1,1.51-1.55,2.28a13.47,13.47,0,0,0-14.06,1.85c-.4-3.47-.8-6.91-1.2-10.43h6.1a3.6,3.6,0,0,0,2.64-1C31.51,17,33.27,15.3,35,13.53a3.51,3.51,0,0,0,.22-4.61.59.59,0,0,1-.07-.71,3.48,3.48,0,0,0-1-4.51c-1.23-.94-2.56-1.77-3.88-2.59A7.84,7.84,0,0,0,26,0,13.11,13.11,0,0,0,16.9,3.57a49.73,49.73,0,0,0-7,8.28,64,64,0,0,0-7,14.47A31.14,31.14,0,0,0,.63,37a24.71,24.71,0,0,1-.63,4v1.38s.06.06.07.09a5.77,5.77,0,0,0,3.23,4.3A59.25,59.25,0,0,0,30,54.14,62.54,62.54,0,0,0,52.87,51c3.79-1.3,6.14-4.22,6.21-8.14C59.17,37.85,59.18,32.85,59.07,27.85Z"/></g></g></svg>