<svg xmlns="http://www.w3.org/2000/svg" viewBox="0 0 73.99 88.86" class="trophy"><defs>
<style>.trophy--yellow{fill:#fff;}.trophy--bottom{fill:#49433b;}.star{fill:#fff;stroke:#000;stroke-linecap:round;stroke-linejoin:round;stroke-width:3px;}</style>
</defs><title>Asset 6</title>
<g id="Layer_2" data-name="Layer 2">
<g id="Layer_1-2" data-name="Layer 1">
<path class="trophy--yellow" d="M41.12,71.81a14,14,0,0,1-2.47-8,17,17,0,0,1,1.84-7.39,22.49,22.49,0,0,1-6.24.06,18.29,18.29,0,0,1,1.4,7.33,13.93,13.93,0,0,1-2.47,8Z"/>
<path class="trophy--yellow" d="M6.31,24.17V22.82a3.72,3.72,0,0,1,3.52-4h4.82v-3H4.08a.88.88,0,0,0-.08.39V27.19c0,8.64,5.24,15.67,11.67,15.67h.72a22.64,22.64,0,0,1-1.1-3.35C9.6,38,6.31,34.83,6.31,24.17Z"/>
<path class="trophy--yellow" d="M53.91,4H20.4a1.75,1.75,0,0,0-1.75,1.75V34.22A18.48,18.48,0,0,0,30,51.28a18.69,18.69,0,0,0,14.35,0A18.47,18.47,0,0,0,55.65,34.22V5.75A1.74,1.74,0,0,0,53.91,4Z"/>
<path class="trophy--yellow" d="M59.65,15.86v3h5.51a3.72,3.72,0,0,1,3.52,4v1.35c0,11-3.47,14-9.46,15.47a1.9,1.9,0,0,1-.25,0,21.66,21.66,0,0,1-1,3.19h.4c6.43,0,11.67-7,11.67-15.67V16.25a.88.88,0,0,0-.08-.39Z"/>
<path class="trophy--bottom" d="M16.78,83.25a1.39,1.39,0,0,0,1.37,1.61h38a1.39,1.39,0,0,0,1.36-1.61l-1.06-6.39H17.85Z"/>
<path d="M70.14,11.86H59.65V5.75A5.75,5.75,0,0,0,53.91,0H20.4a5.76,5.76,0,0,0-5.75,5.75v6.11H3.85A4.1,4.1,0,0,0,0,16.25V27.19C0,38,7,46.86,15.67,46.86h2.56a1.36,1.36,0,0,0,.29,0,22.44,22.44,0,0,0,9.68,8c.51.37,3.45,2.79,3.45,9a10,10,0,0,1-3.71,7.78,2,2,0,0,0-.7,1.22H17.78A3.85,3.85,0,0,0,13.93,76l-1.09,6.57a5.38,5.38,0,0,0,5.31,6.27h38a5.38,5.38,0,0,0,5.31-6.27L60.37,76a3.84,3.84,0,0,0-3.85-3.16H47.06a2,2,0,0,0-.7-1.22,10,10,0,0,1-3.71-7.78c0-4.39,2.86-8.12,3.68-9.11a22.48,22.48,0,0,0,9.43-7.89h2.56C67,46.86,74,38,74,27.19V16.25A4.1,4.1,0,0,0,70.14,11.86Zm-54.47,31C9.24,42.86,4,35.83,4,27.19V16.25a.88.88,0,0,1,.08-.39H14.65v3H9.83a3.72,3.72,0,0,0-3.52,4v1.35c0,10.66,3.29,13.8,9,15.34a22.64,22.64,0,0,0,1.1,3.35Zm-1.41-20V35c-2.28-1-3.95-3.35-3.95-10.81V22.86Zm42.2,54,1.06,6.39a1.39,1.39,0,0,1-1.36,1.61h-38a1.39,1.39,0,0,1-1.37-1.61l1.07-6.39ZM34.25,56.53a22.49,22.49,0,0,0,6.24-.06,17,17,0,0,0-1.84,7.39,14,14,0,0,0,2.47,8H33.18a13.93,13.93,0,0,0,2.47-8A18.29,18.29,0,0,0,34.25,56.53Zm21.4-22.31A18.47,18.47,0,0,1,44.33,51.28a18.69,18.69,0,0,1-14.35,0A18.48,18.48,0,0,1,18.65,34.22V5.75A1.75,1.75,0,0,1,20.4,4H53.91a1.74,1.74,0,0,1,1.74,1.75Zm14.34-7c0,8.64-5.24,15.67-11.67,15.67h-.4a21.66,21.66,0,0,0,1-3.19,1.9,1.9,0,0,0,.25,0c6-1.5,9.46-4.51,9.46-15.47V22.82a3.72,3.72,0,0,0-3.52-4H59.65v-3H69.91a.88.88,0,0,1,.08.39ZM60.73,35V22.86h4v1.31C64.68,31.63,63,33.93,60.73,35Z"/>
<polygon class="star" points="36.98 12.31 40.75 18.44 47.74 20.13 43.08 25.61 43.63 32.77 36.98 30.04 30.34 32.77 30.89 25.61 26.23 20.13 33.22 18.44 36.98 12.31"/>
</g>
</g>
</svg>