<svg xmlns="http://www.w3.org/2000/svg" viewBox="0 0 5.08 5.71"><defs><style>.cls-1{fill:#393e46;}</style></defs><title>자산 2</title><g id="레이어_2" data-name="레이어 2"><g id="레이어_1-2" data-name="레이어 1"><path class="cls-1" d="M2.76,4l.08.39H2.23L2.32,4Zm.14-.18H2.17L2,4.61H3.07Z"/><path class="cls-1" d="M3.31,4.91H1.76V4.62H3.31Zm.06-.47H1.7a.12.12,0,0,0-.12.12V5a.12.12,0,0,0,.12.12H3.37A.12.12,0,0,0,3.49,5V4.56a.12.12,0,0,0-.12-.12"/><path class="cls-1" d="M3.71,5.52H1.37V5.1H3.71Zm.06-.6H1.31A.12.12,0,0,0,1.19,5v.55a.12.12,0,0,0,.12.12H3.77a.13.13,0,0,0,.12-.12V5a.12.12,0,0,0-.12-.12"/><path class="cls-1" d="M4.51.18a.1.1,0,0,1,.1.09V.52a.11.11,0,0,1-.1.1H.56A.1.1,0,0,1,.47.52V.27A.09.09,0,0,1,.56.18h4m0-.18H.56A.27.27,0,0,0,.29.27V.52A.28.28,0,0,0,.56.8h4A.29.29,0,0,0,4.79.52V.27A.28.28,0,0,0,4.51,0"/><path class="cls-1" d="M3.94.8V2.42a1.4,1.4,0,0,1-2.8,0V.8h2.8M4.12.62H1v1.8a1.58,1.58,0,0,0,3.16,0Z"/><path class="cls-1" d="M4.45,3H4.07A.09.09,0,0,1,4,2.85V2.61a.09.09,0,0,1,.09-.09h.38a.11.11,0,0,0,.1,0v-1a.11.11,0,0,0-.1,0H4.07A.09.09,0,0,1,4,1.32V1.08A.09.09,0,0,1,4.07,1h.38c.35,0,.63.21.63.46v1c0,.26-.28.47-.63.47m-.29-.19h.29c.24,0,.45-.12.45-.28v-1c0-.15-.21-.28-.45-.28H4.16v.06h.29a.25.25,0,0,1,.28.22v1c0,.13-.12.22-.28.22H4.16Z"/><path class="cls-1" d="M1,3H.63C.28,3,0,2.74,0,2.48v-1C0,1.2.28,1,.63,1H1a.09.09,0,0,1,.09.09v.24A.09.09,0,0,1,1,1.41H.63c-.07,0-.1,0-.1,0v1s0,0,.1,0H1a.09.09,0,0,1,.09.09v.25A.09.09,0,0,1,1,3M.63,1.17c-.25,0-.45.13-.45.28v1c0,.16.2.28.45.28H.92V2.7H.63c-.16,0-.28-.09-.28-.22v-1a.25.25,0,0,1,.28-.22H.92V1.17Z"/></g></g></svg>