<svg xmlns="http://www.w3.org/2000/svg" viewBox="0 0 82.93 84.15"><defs><style>.cls-1,.cls-2{stroke:#fff;stroke-linecap:round;stroke-linejoin:round;}.cls-1{stroke-width:4px;}.cls-2{fill:none;stroke-width:3px;}</style></defs><title>Asset 2</title><g id="Layer_2" data-name="Layer 2"><g id="Layer_1-2" data-name="Layer 1"><path class="cls-1" d="M65.89,4.54h0A11.28,11.28,0,0,0,54.64,15.79V32.16H77.13V15.79A11.28,11.28,0,0,0,65.89,4.54Z"/><path class="cls-1" d="M77.23,22.64,46.9,3.52A10.46,10.46,0,0,0,36,3.52L5.7,22.64A7.44,7.44,0,0,0,2,28.88v45.5c0,4.29,4.09,7.77,9.13,7.77H25V61.8c0-7.68,7.39-14,16.42-14h0c9,0,16.43,6.29,16.43,14V82.15H71.8c5,0,9.13-3.48,9.13-7.77V28.88A7.44,7.44,0,0,0,77.23,22.64Z"/><polyline class="cls-2" points="57.29 19.5 72.29 29.5 72.29 45.5"/><line class="cls-2" x1="72.79" y1="54" x2="72.79" y2="67"/></g></g></svg>